<?xml version="1.0" encoding="UTF-8"?>
<svg xmlns="http://www.w3.org/2000/svg" xmlns:xlink="http://www.w3.org/1999/xlink" width="24px" height="24px" viewBox="0 0 24 24" version="1.1">
<g id="surface1">
<path style=" stroke:none;fill-rule:nonzero;fill:rgb(0%,0%,0%);fill-opacity:1;" d="M 4.667969 3.011719 C 4.671875 3.019531 5.140625 3.785156 5.710938 4.714844 L 6.75 6.398438 L 6.75 17.589844 L 5.640625 19.285156 C 5.03125 20.222656 4.53125 20.988281 4.53125 20.992188 C 4.53125 20.996094 7.46875 21 11.0625 21 L 17.589844 21 L 17.941406 20.539062 C 18.132812 20.285156 18.578125 19.699219 18.929688 19.238281 C 19.28125 18.777344 19.890625 17.972656 20.285156 17.457031 C 20.675781 16.941406 21 16.511719 21 16.507812 C 21 16.503906 18.976562 16.5 16.5 16.5 L 12 16.5 L 12 3 L 8.332031 3 C 6.3125 3 4.664062 3.007812 4.667969 3.011719 Z M 10.5 11.25 L 10.5 18 L 14.242188 18.003906 L 17.980469 18.007812 L 17.417969 18.753906 L 16.851562 19.5 L 12.078125 19.5 C 9.453125 19.5 7.304688 19.496094 7.304688 19.492188 C 7.304688 19.488281 7.519531 19.160156 7.777344 18.761719 L 8.25 18.039062 L 8.25 5.976562 L 7.800781 5.242188 C 7.550781 4.84375 7.351562 4.511719 7.351562 4.507812 C 7.351562 4.503906 8.058594 4.5 8.925781 4.5 L 10.5 4.5 Z M 10.5 11.25 "/>
<path style=" stroke:none;fill-rule:nonzero;fill:rgb(0%,0%,0%);fill-opacity:1;" d="M 13.5 5.414062 L 13.5 6.175781 L 13.667969 6.21875 C 13.914062 6.277344 14.375 6.433594 14.625 6.539062 C 15.414062 6.878906 16.09375 7.332031 16.699219 7.921875 C 17.273438 8.476562 17.714844 9.085938 18.058594 9.789062 C 18.414062 10.507812 18.617188 11.210938 18.714844 12.050781 C 18.75 12.367188 18.75 13.113281 18.714844 13.4375 C 18.660156 13.921875 18.566406 14.375 18.425781 14.800781 L 18.363281 15 L 19.933594 15 L 19.957031 14.914062 C 20 14.773438 20.082031 14.40625 20.121094 14.191406 C 20.257812 13.433594 20.285156 12.578125 20.195312 11.8125 C 19.949219 9.695312 18.898438 7.761719 17.257812 6.402344 C 16.246094 5.570312 15.0625 4.988281 13.785156 4.703125 C 13.65625 4.675781 13.539062 4.648438 13.527344 4.648438 C 13.5 4.648438 13.5 4.710938 13.5 5.414062 Z M 13.5 5.414062 "/>
<path style=" stroke:none;fill-rule:nonzero;fill:rgb(0%,0%,0%);fill-opacity:1;" d="M 5.113281 8.222656 C 4.175781 9.664062 3.714844 11.269531 3.753906 12.9375 C 3.796875 14.523438 4.261719 15.996094 5.140625 17.316406 L 5.25 17.484375 L 5.25 12.753906 C 5.25 10.152344 5.25 8.023438 5.246094 8.023438 C 5.242188 8.023438 5.183594 8.113281 5.113281 8.222656 Z M 5.113281 8.222656 "/>
</g>
</svg>
